<svg width="36" height="33" viewBox="0 0 36 33" fill="none" xmlns="http://www.w3.org/2000/svg">
<path d="M35.1667 10.875C35.1667 7.009 32.0327 3.875 28.1667 3.875C26.9997 3.875 25.9017 4.165 24.9347 4.669C22.8527 1.842 19.5097 0 15.7297 0C10.5977 0 6.25469 3.38 4.80669 8.036C2.14869 8.653 0.166687 11.03 0.166687 13.875C0.166687 16.854 2.34069 19.32 5.18769 19.788C5.40369 23.737 8.66469 26.875 12.6667 26.875C14.8427 26.875 16.7967 25.942 18.1667 24.462C19.5367 25.942 21.4897 26.875 23.6667 26.875C27.8097 26.875 31.1667 23.518 31.1667 19.375C31.1667 18.665 31.0617 17.981 30.8777 17.33C33.3967 16.271 35.1667 13.78 35.1667 10.875Z" fill="#85C8F8"/>
<path d="M4.16669 32.875C5.82354 32.875 7.16669 31.5319 7.16669 29.875C7.16669 28.2181 5.82354 26.875 4.16669 26.875C2.50983 26.875 1.16669 28.2181 1.16669 29.875C1.16669 31.5319 2.50983 32.875 4.16669 32.875Z" fill="#85C8F8"/>
</svg>
